<svg xmlns="http://www.w3.org/2000/svg" version="1.1" xmlns:xlink="http://www.w3.org/1999/xlink" xmlns:svgjs="http://svgjs.com/svgjs" width="512" height="512" x="0" y="0" viewBox="0 0 100 100" style="enable-background:new 0 0 512 512" xml:space="preserve" class=""><g><path d="M100 28v46.9c0 3.1-2.5 5.6-5.6 5.6h-3.6V94c0 .9-.5 1.8-1.4 2.2-.3.2-.7.3-1.1.3-.5 0-1.1-.2-1.5-.5L66 80.5H31.7c-3.1 0-5.6-2.5-5.6-5.6v-1.3l9.6-7.1h39.6c5.8 0 10.5-4.7 10.5-10.5V22.5h8.6c3.1 0 5.6 2.4 5.6 5.5zM34 61.5 13.2 77c-.4.3-1 .5-1.5.5-.4 0-.8-.1-1.1-.3-.9-.3-1.4-1.2-1.4-2.2V61.5H5.6C2.5 61.5 0 59 0 56V9c0-3.1 2.5-5.5 5.6-5.5h69.7c3.1 0 5.5 2.5 5.5 5.5v47c0 3-2.5 5.5-5.5 5.5zM13 20c0 1.4 1.1 2.5 2.5 2.5h49.9c1.4 0 2.5-1.1 2.5-2.5s-1.1-2.5-2.5-2.5H15.5c-1.4 0-2.5 1.1-2.5 2.5zm0 12.5c0 1.4 1.1 2.5 2.5 2.5h49.9c1.4 0 2.5-1.1 2.5-2.5S66.8 30 65.4 30H15.5c-1.4 0-2.5 1.1-2.5 2.5zm2.5 15h49.9c1.4 0 2.5-1.1 2.5-2.5s-1.1-2.5-2.5-2.5H15.5c-1.4 0-2.5 1.1-2.5 2.5 0 1.3 1.1 2.5 2.5 2.5z" data-original="#000000" class=""></path></g></svg>