<svg width="20" height="20" viewBox="0 0 20 20" fill="#3E4146" xmlns="http://www.w3.org/2000/svg">
<path d="M19.2458 13.9759C19.2208 13.95 17.2115 12.4038 17.2115 12.4038C16.7292 11.9446 16.0885 11.6889 15.4226 11.69C14.7567 11.6911 14.1168 11.9488 13.6361 12.4097L12.05 13.7504C10.7503 13.2134 9.56959 12.4246 8.57578 11.4296C7.58196 10.4345 6.79465 9.25283 6.2591 7.95241L7.59475 6.3662C8.0546 5.88534 8.31159 5.24583 8.31237 4.58046C8.31315 3.91509 8.05765 3.27498 7.59893 2.79305C7.59893 2.79305 6.05458 0.786905 6.02787 0.761025C5.55188 0.280849 4.90592 0.00749576 4.22987 0.00015187C3.55381 -0.00719202 2.90207 0.252065 2.41576 0.721787L1.4566 1.55664C-4.98876 8.40991 11.6409 25.0485 18.4862 18.5041L19.2475 17.6275C19.7298 17.1423 20.0003 16.4859 20 15.8017C19.9997 15.1176 19.7285 14.4606 19.2458 13.9759Z" />
</svg>
