<svg width="16" height="19" viewBox="0 0 16 19" fill="none" xmlns="http://www.w3.org/2000/svg">
<path d="M8 0C5.87912 0.00230461 3.84577 0.835425 2.34601 2.31659C0.846243 3.79776 0.00254581 5.80603 0 7.90082C0 9.9354 1.59503 13.1195 4.74101 17.3644C5.11553 17.8712 5.6059 18.2834 6.17221 18.5676C6.73852 18.8519 7.36477 19 8 19C8.63523 19 9.26148 18.8519 9.82779 18.5676C10.3941 18.2834 10.8845 17.8712 11.259 17.3644C14.405 13.1195 16 9.9354 16 7.90082C15.9975 5.80603 15.1538 3.79776 13.654 2.31659C12.1542 0.835425 10.1209 0.00230461 8 0ZM8 11.0501C7.36589 11.0501 6.74603 10.8643 6.21879 10.5164C5.69155 10.1684 5.28062 9.67387 5.03796 9.09523C4.7953 8.5166 4.7318 7.87989 4.85551 7.26562C4.97922 6.65135 5.28457 6.0871 5.73295 5.64424C6.18133 5.20137 6.7526 4.89978 7.37452 4.77759C7.99644 4.6554 8.64108 4.71811 9.22692 4.95779C9.81275 5.19747 10.3135 5.60335 10.6658 6.1241C11.0181 6.64486 11.2061 7.2571 11.2061 7.8834C11.2061 8.72326 10.8683 9.52871 10.267 10.1226C9.66579 10.7164 8.85031 11.0501 8 11.0501Z" fill="#3E4146"/>
</svg>
