<svg width="34" height="31" viewBox="0 0 34 31" fill="#6666CC" xmlns="http://www.w3.org/2000/svg">
<path d="M16.5277 0.358693C16.6834 -0.0890874 17.3166 -0.0890864 17.4723 0.358694L21.1178 10.8464C21.1865 11.044 21.3708 11.1779 21.5799 11.1822L32.6809 11.4084C33.1548 11.418 33.3505 12.0203 32.9728 12.3067L24.1249 19.0147C23.9582 19.1411 23.8878 19.3578 23.9484 19.5579L27.1636 30.1855C27.3009 30.6392 26.7886 31.0115 26.3994 30.7407L17.2856 24.3987C17.1139 24.2793 16.8861 24.2793 16.7144 24.3987L7.60057 30.7407C7.21145 31.0115 6.69913 30.6392 6.8364 30.1855L10.0516 19.5579C10.1122 19.3578 10.0418 19.1411 9.87514 19.0147L1.02723 12.3067C0.649468 12.0203 0.845159 11.418 1.31912 11.4084L12.4201 11.1822C12.6292 11.1779 12.8135 11.044 12.8822 10.8464L16.5277 0.358693Z" />
</svg>
