<svg width="26" height="15" fill="#3E4146" viewBox="0 0 26 15" xmlns="http://www.w3.org/2000/svg">
    <path fill-rule="evenodd" clip-rule="evenodd" d="M8.46869 1.05536C8.81251 1.05536 9.0883 1.08282 9.36856 1.25939C9.59708 1.40337 9.75587 1.6035 9.87459 1.86007C9.96878 2.06355 10.0726 2.47943 10.0714 2.77222C10.0698 3.15066 10.0839 3.4973 10.0839 3.88286L10.106 4.97088C10.1245 5.1065 10.1102 5.3735 10.1095 5.52261C10.1089 5.62945 10.1228 5.68405 10.1224 5.79361C10.1216 6.0257 10.1492 6.40634 10.1111 6.59564C9.97491 7.27173 9.23019 7.55832 8.66593 7.18307C8.48052 7.05975 8.19394 6.59991 8.05082 6.38235L7.76877 5.95634C7.71941 5.88185 7.68152 5.81763 7.63284 5.74462L7.3621 5.30722C7.14079 4.93252 6.90295 4.56127 6.70802 4.17135L5.93463 2.63926C5.73768 2.24284 5.50395 1.67983 5.34265 1.27301C5.26735 1.08308 5.19946 0.975914 5.05509 0.852536C4.94175 0.755671 4.73793 0.655131 4.53322 0.655131H0.597723C0.36497 0.655131 0.134237 0.839968 0.0515152 1.04748C-0.0345292 1.26333 -0.00211189 1.4228 0.0706398 1.62493C0.106087 1.72344 0.140524 1.81535 0.180175 1.91487C0.329099 2.28871 0.470921 2.66971 0.649135 3.03059C0.780108 3.29582 0.890164 3.57766 1.02058 3.8443L1.28142 4.38208C1.3053 4.43022 1.32169 4.4629 1.34547 4.5112L1.68307 5.16534C1.83281 5.46791 2.00526 5.76398 2.16607 6.06035C2.19139 6.10705 2.21403 6.14951 2.23915 6.19331C2.47829 6.61057 2.7116 7.0381 2.97449 7.44101L3.35124 8.04278C3.38079 8.08711 3.40393 8.12228 3.43331 8.16671L4.07163 9.11187C4.31373 9.4575 4.55776 9.80755 4.82508 10.1347L5.09331 10.4714C5.21298 10.614 5.32111 10.7672 5.44661 10.9031L6.58747 12.1426L6.99111 12.5236C7.03011 12.5633 7.05608 12.5754 7.09403 12.6137C7.11443 12.6342 7.12436 12.6465 7.14642 12.6642L7.30538 12.8011C7.65155 13.1331 8.37251 13.6388 8.78847 13.8895C8.95645 13.9908 9.12124 14.0819 9.30193 14.1729C9.56977 14.3077 9.84358 14.4266 10.1242 14.5325C10.6173 14.7185 11.2464 14.8571 11.7889 14.8571H14.4168C14.5862 14.8571 14.7787 14.7679 14.8855 14.6965C15.0089 14.614 15.1165 14.4903 15.1901 14.3578C15.2766 14.2019 15.3014 14.0739 15.3013 13.8372V12.559C15.3012 12.1709 15.4004 11.8809 15.6987 11.6682C15.9622 11.4804 16.3785 11.4354 16.6726 11.6039C16.8073 11.6811 16.8831 11.7748 16.9972 11.8709L17.9325 12.7494C18.0928 12.9127 18.2646 13.0572 18.426 13.2207C18.447 13.242 18.4615 13.259 18.4843 13.2782L19.6567 14.3827C19.9143 14.643 20.2438 14.8571 20.6341 14.8571H24.6337C24.9813 14.8571 25.2721 14.796 25.548 14.6419C25.7519 14.528 25.9136 14.3456 25.9723 14.1137C26.0638 13.7518 25.9145 13.3832 25.7307 13.0809C25.6577 12.9608 25.5824 12.8567 25.4895 12.7557C25.4381 12.6998 25.3544 12.6003 25.3003 12.559C25.2284 12.5041 25.1823 12.4327 25.1177 12.3684L22.5935 9.73343C22.5348 9.65927 22.4795 9.60818 22.4128 9.54107C22.2567 9.38413 21.9894 9.11125 21.8902 8.91831C21.6835 8.51641 21.6989 8.07264 21.8987 7.67415C21.9424 7.58713 22.0036 7.50943 22.0588 7.43514C22.9049 6.29632 23.7716 5.17393 24.619 4.03593L25.0335 3.4592C25.0633 3.4149 25.088 3.38399 25.1183 3.33802C25.1465 3.29517 25.1667 3.26632 25.1936 3.22029C25.2703 3.08939 25.3512 2.98036 25.4241 2.84556C25.6592 2.41088 26.0386 1.73423 25.934 1.21759C25.9023 1.06084 25.8263 0.937589 25.7067 0.839706C25.5806 0.736508 25.3211 0.655131 25.0952 0.655131H20.711C20.4741 0.655131 20.246 0.782906 20.1182 0.897261C19.9484 1.04915 19.69 1.56213 19.566 1.81295L18.6045 3.60755C18.5786 3.65999 18.5562 3.69063 18.5317 3.74074L18.0149 4.71792C17.7819 5.18771 17.3786 5.93294 17.096 6.33589C16.8703 6.65759 16.5882 6.98678 16.2242 7.1492C16.1205 7.1955 16.001 7.20899 15.8726 7.18074C15.7565 7.15517 15.6819 7.0883 15.6119 7.01723C15.4642 6.86721 15.3891 6.63915 15.3492 6.42977C15.3018 6.18153 15.3013 5.92956 15.3013 5.62581L15.3014 1.4039C15.3024 1.11987 15.2175 0.918589 15.122 0.732406C14.936 0.369522 14.54 0.0935946 14.1313 0.0259661C13.8965 -0.012885 12.7923 0.00955943 12.4683 0.00955943C11.9042 0.00955943 11.3398 0.00755733 10.7759 0.00988708C10.5566 0.010773 10.4613 -0.0187258 10.197 0.0201581C9.91219 0.0620608 9.62786 0.148852 9.38312 0.2721C9.17673 0.37602 8.99304 0.512031 8.8186 0.658937L8.46869 1.05536Z" ></path>
</svg>