<svg width="25" height="19" viewBox="0 0 25 19" fill="none" xmlns="http://www.w3.org/2000/svg">
<path d="M24.9521 4L16.1833 11.2328C15.2056 12.0372 13.881 12.489 12.5 12.489C11.119 12.489 9.7944 12.0372 8.81667 11.2328L0.0479167 4C0.0333333 4.13575 0 4.25862 0 4.39352V14.704C0.00165402 15.8429 0.550919 16.9349 1.52731 17.7402C2.50371 18.5456 3.82751 18.9986 5.20833 19H19.7917C21.1725 18.9986 22.4963 18.5456 23.4727 17.7402C24.4491 16.9349 24.9983 15.8429 25 14.704V4.39352C25 4.25862 24.9667 4.13575 24.9521 4Z" fill="#3E4146"/>
<path d="M14.8565 10.2239L25 2.13492C24.5086 1.48525 23.8156 0.94751 22.9877 0.57356C22.1598 0.19961 21.2251 0.00207264 20.2736 0H4.72637C3.7749 0.00207264 2.84015 0.19961 2.01229 0.57356C1.18443 0.94751 0.491381 1.48525 0 2.13492L10.1435 10.2239C10.7693 10.7209 11.6167 11 12.5 11C13.3833 11 14.2307 10.7209 14.8565 10.2239Z" fill="#3E4146"/>
</svg>
