<svg xmlns="http://www.w3.org/2000/svg" xmlns:xlink="http://www.w3.org/1999/xlink"><symbol id="arrow-down" viewBox="0 0 13 7"><path d="M1 1l5.5 5L12 1" fill="none" stroke-width="2" stroke-linecap="round" stroke-linejoin="round"/></symbol><symbol id="arrow-right" viewBox="0 0 7 13"><path d="M1 12l5-5.5L1 1" stroke-width="2" stroke-linecap="round" stroke-linejoin="round"/></symbol><symbol id="close" viewBox="0 0 21 22"><path d="M19.339 2.161L1.66 19.84m17.679-.001L1.66 2.16" stroke="#fff" stroke-width="3" stroke-linecap="round"/></symbol><symbol id="envelope" viewBox="0 0 25 19"><path d="M24.952 4l-8.769 7.233c-.977.804-2.302 1.256-3.683 1.256-1.381 0-2.706-.452-3.683-1.256L.047 4C.034 4.136 0 4.259 0 4.394v10.31c.002 1.139.55 2.23 1.527 3.036.977.806 2.3 1.259 3.681 1.26h14.584c1.38-.001 2.704-.454 3.68-1.26.977-.805 1.526-1.897 1.528-3.036V4.394c0-.135-.033-.258-.048-.394z"/><path d="M14.857 10.224L25 2.134c-.491-.649-1.184-1.186-2.012-1.56A6.66 6.66 0 0020.274 0H4.726a6.66 6.66 0 00-2.714.574C1.184.948.492 1.485 0 2.134l10.143 8.09c.626.497 1.474.776 2.357.776.883 0 1.73-.28 2.357-.776z"/></symbol><symbol id="mob-menu" viewBox="0 0 29 20"><path d="M27 2H2m25 8H2m25 8H2" stroke="#3E4146" stroke-width="3" stroke-linecap="round"/></symbol><symbol id="phone" viewBox="0 0 20 20"><path d="M19.246 13.976a416.815 416.815 0 00-2.034-1.572 2.588 2.588 0 00-3.576.006l-1.586 1.34a10.668 10.668 0 01-5.79-5.798l1.335-1.586a2.588 2.588 0 00.004-3.573S6.055.787 6.028.761a2.571 2.571 0 00-3.612-.04l-.96.836c-6.445 6.853 10.185 23.491 17.03 16.947l.761-.877a2.588 2.588 0 00-.001-3.651z"/></symbol><symbol id="point" viewBox="0 0 16 19"><path d="M8 0a8.06 8.06 0 00-5.654 2.317A7.861 7.861 0 000 7.9c0 2.034 1.595 5.219 4.741 9.463.375.507.865.92 1.431 1.204a4.075 4.075 0 003.656 0 4.021 4.021 0 001.431-1.204C14.405 13.12 16 9.935 16 7.901a7.861 7.861 0 00-2.346-5.584A8.06 8.06 0 008 0zm0 11.05a3.235 3.235 0 01-1.781-.534 3.176 3.176 0 01-1.181-1.42 3.13 3.13 0 01-.182-1.83 3.151 3.151 0 01.877-1.622 3.219 3.219 0 011.642-.866 3.243 3.243 0 011.852.18c.586.24 1.086.645 1.439 1.166a3.139 3.139 0 01-.399 3.999A3.227 3.227 0 018 11.05z" fill="#3E4146"/></symbol><symbol id="star" viewBox="0 0 34 31"><path d="M16.528.359a.5.5 0 01.944 0l3.646 10.487a.5.5 0 00.462.336l11.1.226a.5.5 0 01.293.899l-8.848 6.708a.5.5 0 00-.177.543l3.216 10.628a.5.5 0 01-.765.555l-9.113-6.342a.5.5 0 00-.572 0L7.601 30.74a.5.5 0 01-.765-.555l3.216-10.628a.5.5 0 00-.177-.543l-8.848-6.708a.5.5 0 01.292-.899l11.101-.226a.5.5 0 00.462-.336L16.528.36z"/></symbol></svg>