<svg xmlns="http://www.w3.org/2000/svg" xmlns:xlink="http://www.w3.org/1999/xlink"><symbol id="arrow-down" viewBox="0 0 13 7"><path d="M1 1l5.5 5L12 1" fill="none" stroke-width="2" stroke-linecap="round" stroke-linejoin="round"/></symbol><symbol id="arrow-right" viewBox="0 0 7 13"><path d="M1 12l5-5.5L1 1" stroke-width="2" stroke-linecap="round" stroke-linejoin="round"/></symbol><symbol id="check" viewBox="0 0 12 10"><path d="M1 6.5L3.667 9 11 1" stroke="#66C" stroke-width="2" stroke-linecap="round" stroke-linejoin="round"/></symbol><symbol id="close" viewBox="0 0 21 22"><path d="M19.339 2.161L1.66 19.84m17.679-.001L1.66 2.16" stroke="#fff" stroke-width="3" stroke-linecap="round"/></symbol><symbol id="comments" viewBox="0 0 100 100"><path d="M100 28v46.9c0 3.1-2.5 5.6-5.6 5.6h-3.6V94c0 .9-.5 1.8-1.4 2.2-.3.2-.7.3-1.1.3-.5 0-1.1-.2-1.5-.5L66 80.5H31.7c-3.1 0-5.6-2.5-5.6-5.6v-1.3l9.6-7.1h39.6c5.8 0 10.5-4.7 10.5-10.5V22.5h8.6c3.1 0 5.6 2.4 5.6 5.5zM34 61.5L13.2 77c-.4.3-1 .5-1.5.5-.4 0-.8-.1-1.1-.3-.9-.3-1.4-1.2-1.4-2.2V61.5H5.6C2.5 61.5 0 59 0 56V9c0-3.1 2.5-5.5 5.6-5.5h69.7c3.1 0 5.5 2.5 5.5 5.5v47c0 3-2.5 5.5-5.5 5.5zM13 20c0 1.4 1.1 2.5 2.5 2.5h49.9c1.4 0 2.5-1.1 2.5-2.5s-1.1-2.5-2.5-2.5H15.5c-1.4 0-2.5 1.1-2.5 2.5zm0 12.5c0 1.4 1.1 2.5 2.5 2.5h49.9c1.4 0 2.5-1.1 2.5-2.5S66.8 30 65.4 30H15.5c-1.4 0-2.5 1.1-2.5 2.5zm2.5 15h49.9c1.4 0 2.5-1.1 2.5-2.5s-1.1-2.5-2.5-2.5H15.5c-1.4 0-2.5 1.1-2.5 2.5 0 1.3 1.1 2.5 2.5 2.5z" data-original="#000000"/></symbol><symbol id="envelope" viewBox="0 0 25 19"><path d="M24.952 4l-8.769 7.233c-.977.804-2.302 1.256-3.683 1.256-1.381 0-2.706-.452-3.683-1.256L.047 4C.034 4.136 0 4.259 0 4.394v10.31c.002 1.139.55 2.23 1.527 3.036.977.806 2.3 1.259 3.681 1.26h14.584c1.38-.001 2.704-.454 3.68-1.26.977-.805 1.526-1.897 1.528-3.036V4.394c0-.135-.033-.258-.048-.394z"/><path d="M14.857 10.224L25 2.134c-.491-.649-1.184-1.186-2.012-1.56A6.66 6.66 0 0020.274 0H4.726a6.66 6.66 0 00-2.714.574C1.184.948.492 1.485 0 2.134l10.143 8.09c.626.497 1.474.776 2.357.776.883 0 1.73-.28 2.357-.776z"/></symbol><symbol id="mob-menu" viewBox="0 0 29 20"><path d="M27 2H2m25 8H2m25 8H2" stroke="#3E4146" stroke-width="3" stroke-linecap="round"/></symbol><symbol id="phone" viewBox="0 0 20 20"><path d="M19.246 13.976a416.815 416.815 0 00-2.034-1.572 2.588 2.588 0 00-3.576.006l-1.586 1.34a10.668 10.668 0 01-5.79-5.798l1.335-1.586a2.588 2.588 0 00.004-3.573S6.055.787 6.028.761a2.571 2.571 0 00-3.612-.04l-.96.836c-6.445 6.853 10.185 23.491 17.03 16.947l.761-.877a2.588 2.588 0 00-.001-3.651z"/></symbol><symbol id="point" viewBox="0 0 16 19"><path d="M8 0a8.06 8.06 0 00-5.654 2.317A7.861 7.861 0 000 7.9c0 2.034 1.595 5.219 4.741 9.463.375.507.865.92 1.431 1.204a4.075 4.075 0 003.656 0 4.021 4.021 0 001.431-1.204C14.405 13.12 16 9.935 16 7.901a7.861 7.861 0 00-2.346-5.584A8.06 8.06 0 008 0zm0 11.05a3.235 3.235 0 01-1.781-.534 3.176 3.176 0 01-1.181-1.42 3.13 3.13 0 01-.182-1.83 3.151 3.151 0 01.877-1.622 3.219 3.219 0 011.642-.866 3.243 3.243 0 011.852.18c.586.24 1.086.645 1.439 1.166a3.139 3.139 0 01-.399 3.999A3.227 3.227 0 018 11.05z" fill="#3E4146"/></symbol><symbol id="star" viewBox="0 0 34 31"><path d="M16.528.359a.5.5 0 01.944 0l3.646 10.487a.5.5 0 00.462.336l11.1.226a.5.5 0 01.293.899l-8.848 6.708a.5.5 0 00-.177.543l3.216 10.628a.5.5 0 01-.765.555l-9.113-6.342a.5.5 0 00-.572 0L7.601 30.74a.5.5 0 01-.765-.555l3.216-10.628a.5.5 0 00-.177-.543l-8.848-6.708a.5.5 0 01.292-.899l11.101-.226a.5.5 0 00.462-.336L16.528.36z"/></symbol><symbol id="tg" viewBox="0 0 20 17"><path d="M7.848 10.985l-.331 4.653c.473 0 .678-.204.924-.448l2.22-2.12 4.598 3.367c.843.47 1.437.223 1.665-.776l3.018-14.143v-.001C20.21.27 19.493-.217 18.67.089L.928 6.88c-1.21.47-1.192 1.145-.205 1.451l4.535 1.41L15.794 3.15c.496-.328.947-.146.576.182l-8.522 7.653z"/></symbol><symbol id="vk" viewBox="0 0 26 15"><path fill-rule="evenodd" clip-rule="evenodd" d="M8.469 1.055c.344 0 .62.028.9.204.228.144.387.345.506.601.094.204.198.62.196.912-.001.379.013.725.013 1.11l.022 1.089c.018.135.004.402.004.552-.001.106.013.161.012.27 0 .233.027.613-.01.803-.137.676-.882.962-1.446.587-.185-.123-.472-.583-.615-.8l-.282-.427c-.05-.074-.087-.138-.136-.211l-.27-.438c-.222-.374-.46-.746-.655-1.136L5.935 2.64a19.97 19.97 0 01-.592-1.366.932.932 0 00-.288-.42.863.863 0 00-.522-.198H.598c-.233 0-.464.185-.546.392-.087.216-.054.376.019.578.035.098.07.19.11.29.148.374.29.755.468 1.116.131.265.241.547.372.813l.26.538.064.13.338.653c.15.303.322.599.483.895.025.047.048.09.073.133.24.418.473.845.735 1.248l.377.602.082.124.639.945c.242.345.486.696.753 1.023l.268.336c.12.143.228.296.354.432l1.14 1.24.404.38c.04.04.065.052.103.09.02.021.03.034.052.051l.16.137c.346.332 1.067.838 1.482 1.088.168.102.333.193.514.284.268.135.542.254.822.36.493.186 1.122.324 1.665.324h2.628a.945.945 0 00.773-.5c.087-.155.111-.283.111-.52V12.56c0-.388.1-.678.398-.89.263-.189.68-.234.974-.065.134.077.21.17.324.267l.936.878c.16.164.332.308.493.472.021.021.036.038.058.057l1.173 1.105c.257.26.587.474.977.474h4c.347 0 .638-.061.914-.215a.853.853 0 00.424-.528c.092-.362-.058-.73-.241-1.033a2.002 2.002 0 00-.242-.325c-.05-.056-.135-.156-.189-.197-.072-.055-.118-.126-.182-.19l-2.524-2.636c-.06-.074-.114-.125-.181-.192-.156-.157-.424-.43-.523-.623a1.346 1.346 0 01.009-1.244c.043-.087.105-.165.16-.239.846-1.139 1.713-2.261 2.56-3.4l.415-.576c.03-.044.054-.075.084-.121.029-.043.049-.072.076-.118.076-.13.157-.24.23-.374.235-.435.615-1.112.51-1.628a.633.633 0 00-.227-.378c-.126-.103-.386-.185-.612-.185h-4.384a.953.953 0 00-.593.242c-.17.152-.428.665-.552.916l-.961 1.795c-.026.052-.049.083-.073.133l-.517.977c-.233.47-.636 1.215-.919 1.618-.226.322-.508.65-.872.813a.557.557 0 01-.351.032.512.512 0 01-.261-.164c-.148-.15-.223-.378-.263-.587-.047-.248-.048-.5-.048-.804V1.404a1.374 1.374 0 00-.179-.672 1.404 1.404 0 00-.99-.706c-.236-.039-1.34-.016-1.664-.016-.564 0-1.128-.002-1.692 0-.22 0-.315-.029-.579.01a2.72 2.72 0 00-.814.252c-.206.104-.39.24-.564.387l-.35.396z"/></symbol></svg>